<?xml version="1.0" standalone="no"?>
<!DOCTYPE svg PUBLIC "-//W3C//DTD SVG 20010904//EN"
 "http://www.w3.org/TR/2001/REC-SVG-20010904/DTD/svg10.dtd">
<svg version="1.0" xmlns="http://www.w3.org/2000/svg"
 width="512.000000pt" height="512.000000pt" viewBox="0 0 512.000000 512.000000"
 preserveAspectRatio="xMidYMid meet">

<g transform="translate(0.000000,512.000000) scale(0.100000,-0.100000)"
fill="#d8dbe0" stroke="none">
<path d="M2793 4103 c-50 -3 -65 -8 -78 -26 -20 -29 -19 -60 3 -87 l18 -22
679 -2 680 -1 57 -27 c83 -38 126 -75 169 -140 74 -114 70 -55 67 -1259 l-3
-1076 -40 -79 c-47 -91 -109 -149 -202 -185 -53 -21 -80 -23 -338 -31 -154 -4
-824 -10 -1488 -14 -930 -5 -1222 -4 -1270 6 -127 25 -225 100 -279 217 -25
53 -32 84 -37 158 -7 107 -23 135 -76 135 -53 0 -65 -24 -65 -126 1 -246 174
-456 430 -520 59 -15 177 -16 1285 -10 671 4 1348 10 1505 14 270 8 289 10
352 34 176 66 307 210 352 385 15 56 16 177 14 1150 l-3 1088 -23 59 c-51 135
-137 235 -258 298 -129 68 -130 68 -794 66 -327 -1 -623 -3 -657 -5z"/>
<path d="M1485 4090 l-460 -5 -71 -26 c-137 -50 -241 -140 -304 -263 -62 -123
-60 -87 -60 -1048 l0 -877 22 -21 c27 -25 59 -26 89 -1 l24 19 5 889 c5 849 6
890 24 933 43 99 105 174 176 210 90 46 133 50 515 50 198 0 452 3 564 7 179
5 207 9 223 25 27 27 23 72 -8 97 -24 19 -38 21 -153 19 -69 -1 -333 -5 -586
-8z"/>
<path d="M2432 4077 c-28 -30 -28 -68 1 -95 47 -44 120 -15 120 48 0 63 -78
93 -121 47z"/>
<path d="M3625 3482 c-186 -87 -133 -360 74 -379 37 -4 57 1 101 24 100 53
136 167 83 269 -45 88 -167 129 -258 86z"/>
<path d="M2892 3003 c-14 -12 -44 -92 -92 -245 -77 -249 -149 -458 -174 -507
-20 -38 -32 -39 -71 -2 -16 16 -103 90 -193 165 -130 108 -169 136 -193 136
-25 0 -49 -19 -143 -112 -163 -164 -306 -333 -306 -364 0 -27 40 -74 64 -74
31 0 49 16 165 148 150 172 216 236 233 229 7 -3 78 -61 158 -128 80 -67 163
-130 185 -140 56 -26 124 -24 166 3 48 32 75 93 181 412 l92 278 24 -28 c50
-62 361 -537 577 -884 125 -201 237 -375 248 -387 42 -46 117 -20 117 41 0 43
-599 991 -826 1308 -118 164 -161 194 -212 151z"/>
<path d="M1608 1958 c-8 -7 -63 -67 -121 -133 -57 -66 -137 -151 -176 -190
-59 -57 -71 -75 -71 -102 0 -41 42 -77 80 -68 48 11 400 392 400 434 0 10 -9
30 -21 45 -22 28 -64 35 -91 14z"/>
</g>
</svg>
